<?xml version="1.0" standalone="no"?>
<svg viewBox="0 0 200 200" xmlns="http://www.w3.org/2000/svg">
  <path fill="#FF0066" d="M46.1,-67.1C59.4,-72.1,69.7,-59.2,63.4,-45C57,-30.8,34.1,-15.4,31.5,-1.5C28.9,12.4,46.7,24.8,52.9,38.8C59.1,52.8,53.8,68.4,43.1,72.1C32.3,75.9,16.2,67.8,5.5,58.2C-5.1,48.6,-10.2,37.6,-19.1,32.8C-28,27.9,-40.6,29.3,-49.1,24.9C-57.6,20.5,-61.9,10.3,-65.5,-2.1C-69.1,-14.4,-72.1,-28.9,-68.8,-42.2C-65.4,-55.6,-55.8,-67.9,-43.3,-63.3C-30.8,-58.7,-15.4,-37.3,0.5,-38.1C16.4,-39,32.8,-62,46.1,-67.1Z" transform="translate(100 100)" />
</svg>
