<?xml version="1.0" standalone="no"?>
<svg viewBox="0 0 200 200" xmlns="http://www.w3.org/2000/svg">
  <path fill="#8A3FFC" d="M21.3,-26.1C32.1,-26.3,48.4,-27.9,61.1,-21.6C73.8,-15.3,83,-1,77.9,8.8C72.7,18.6,53.3,24,42.1,36C30.9,48.1,28.1,66.9,21.2,66.3C14.3,65.7,3.4,45.6,-6.2,35.9C-15.7,26.3,-24,27.1,-36.1,24.8C-48.3,22.5,-64.4,17,-67.7,8.4C-70.9,-0.2,-61.3,-11.9,-53.3,-22.2C-45.3,-32.5,-38.8,-41.5,-30.2,-42.3C-21.6,-43.1,-10.8,-35.8,-2.8,-31.5C5.3,-27.3,10.6,-26,21.3,-26.1Z" transform="translate(100 100)" />
</svg>
